<?xml version="1.0" encoding="utf-8"?>
<!-- Generator: Adobe Illustrator 16.0.0, SVG Export Plug-In . SVG Version: 6.00 Build 0)  -->
<!DOCTYPE svg PUBLIC "-//W3C//DTD SVG 1.1//EN" "http://www.w3.org/Graphics/SVG/1.1/DTD/svg11.dtd">
<svg version="1.1" id="settings11" xmlns="http://www.w3.org/2000/svg" xmlns:xlink="http://www.w3.org/1999/xlink" x="0px" y="0px"
	 width="37.418px" height="37.422px" viewBox="0 0 37.418 37.422" enable-background="new 0 0 37.418 37.422" xml:space="preserve">
<path fill="#696CFF" d="M35.982,14.07L24.143,2.229c-3.049-3.042-7.986-3.042-11.037,0L1.267,14.07
	c-0.882,0.876-1.376,2.068-1.372,3.312v15.324c0,2.587,2.096,4.684,4.682,4.684h28.097c2.586,0,4.683-2.097,4.683-4.684V17.382
	C37.358,16.139,36.866,14.946,35.982,14.07z M23.309,34.269h-9.366v-6.142c0-2.587,2.096-4.684,4.682-4.684s4.684,2.097,4.684,4.684
	V34.269z M34.233,32.706c0,0.862-0.699,1.563-1.56,1.563h-6.245v-6.142c0-4.312-3.493-7.806-7.804-7.806
	c-4.31,0-7.804,3.494-7.804,7.806v6.142H4.577c-0.862,0-1.561-0.7-1.561-1.563V17.382c0.001-0.415,0.166-0.811,0.457-1.104
	L15.313,4.44c1.832-1.823,4.792-1.823,6.625,0l11.839,11.843c0.289,0.292,0.453,0.687,0.456,1.099V32.706z"/>
</svg>
