<svg id="settings11" xmlns="http://www.w3.org/2000/svg" width="37.418" height="37.422" viewBox="0 0 37.418 37.422">
  <path id="Path_165" data-name="Path 165" d="M38.875,17.9l.693-1.861-1.979-4.777-1.806-.824-2.091.7-.522-.163A15.8,15.8,0,0,0,30.878,8.68l-.163-.526.7-2.093-.824-1.806L25.811,2.275l-1.86.7-.988,1.973-.486.255a15.755,15.755,0,0,0-3.237,0l-.486-.253-.986-1.97-1.86-.7L11.13,4.254,10.306,6.06,11,8.15l-.165.524a15.706,15.706,0,0,0-2.287,2.291l-.524.163-2.091-.7-1.806.824L2.15,16.034,2.843,17.9l1.973.988.255.486a15.89,15.89,0,0,0,0,3.237l-.253.486-1.97.986L2.152,25.94l1.979,4.777,1.806.824,2.089-.7.522.163A15.8,15.8,0,0,0,10.84,33.3l.163.522-.7,2.093.826,1.806L15.909,39.7l1.861-.7.986-1.972.486-.255a15.773,15.773,0,0,0,3.238,0l.484.255L23.951,39l1.86.693,4.777-1.979.824-1.806-.7-2.089.163-.522a15.8,15.8,0,0,0,2.287-2.291l.522-.163,2.093.7,1.806-.824,1.979-4.779-.693-1.861L36.9,23.089l-.255-.484a15.908,15.908,0,0,0,0-3.238l.253-.486Zm-3.265-.332-.765,1.466.032.27a14.035,14.035,0,0,1,0,3.364l-.032.272.767,1.468,1.861.931.211.566-1.451,3.5-.549.251L33.7,28.994l-1.58.5-.169.215a14.027,14.027,0,0,1-2.376,2.382l-.215.167-.5,1.58.657,1.973-.251.549-3.5,1.451-.566-.211-.931-1.86-1.466-.767-.27.032a14.051,14.051,0,0,1-3.366,0l-.27-.032-1.468.767L16.508,37.6l-.566.211-3.5-1.449-.251-.549.657-1.975-.5-1.58-.215-.169a14.038,14.038,0,0,1-2.382-2.378l-.167-.215L8.01,29l-1.973.659L5.487,29.4,4.036,25.9l.211-.566,1.607-.805.287-.192.733-1.4-.032-.27a14.035,14.035,0,0,1,0-3.364l.032-.272L6.11,17.565l-1.861-.931-.213-.566,1.451-3.5.549-.251,1.975.657,1.58-.5.169-.215a14.028,14.028,0,0,1,2.376-2.382l.215-.169.494-1.58-.655-1.97.251-.549,3.5-1.451.566.211.931,1.86L18.9,7l.27-.032a14.035,14.035,0,0,1,3.364,0L22.81,7l1.468-.769.933-1.863.566-.211,3.5,1.451.251.549-.657,1.975.494,1.58.215.169a14.038,14.038,0,0,1,2.382,2.378l.167.215,1.58.5,1.973-.657.549.251,1.451,3.5-.211.566Z" transform="translate(-2.15 -2.275)" fill="#696cff"/>
  <path id="Path_166" data-name="Path 166" d="M16.567,7a9.643,9.643,0,1,0,9.658,9.643A9.661,9.661,0,0,0,16.567,7Zm0,17.531a7.888,7.888,0,1,1,7.9-7.888A7.9,7.9,0,0,1,16.567,24.529Z" transform="translate(2.13 1.973)" fill="#696cff"/>
</svg>
